<svg width="512" height="512" viewBox="0 0 512 512" fill="none" xmlns="http://www.w3.org/2000/svg">
  <path
    d="M464 0C490.51 0 512 21.49 512 48V336C512 362.51 490.51 384 464 384H176C149.49 384 128 362.51 128 336V48C128 21.49 149.49 0 176 0H464ZM176 416C131.888 416 96 380.112 96 336V128H48C21.49 128 0 149.49 0 176V464C0 490.51 21.49 512 48 512H336C362.51 512 384 490.51 384 464V416H176Z"
    fill="#F5F5F5" />
  <path
    d="M178.833 106C178.833 96.9495 182.565 88.2697 189.207 81.87C195.849 75.4703 204.857 71.875 214.25 71.875C223.643 71.875 232.652 75.4703 239.294 81.87C245.935 88.2697 249.667 96.9495 249.667 106C249.667 115.05 245.935 123.73 239.294 130.13C232.652 136.53 223.643 140.125 214.25 140.125C204.857 140.125 195.849 136.53 189.207 130.13C182.565 123.73 178.833 115.05 178.833 106ZM347.063 140.125C352.929 140.125 358.352 142.898 361.672 147.483L459.068 283.983C462.831 289.209 463.163 296.034 460.175 301.579C457.186 307.124 451.099 310.75 444.458 310.75H196.542C190.123 310.75 184.257 307.444 181.158 302.112C178.059 296.78 178.059 290.168 181.379 284.943L234.504 199.63C237.714 194.512 243.469 191.312 249.667 191.312C255.865 191.312 261.62 194.405 264.83 199.63L278.996 222.452L332.453 147.59C335.774 143.004 341.197 140.232 347.063 140.232V140.125Z"
    fill="#111516" />
</svg>
